<?xml version="1.0" standalone="no"?>
<!DOCTYPE svg PUBLIC "-//W3C//DTD SVG 20010904//EN"
 "http://www.w3.org/TR/2001/REC-SVG-20010904/DTD/svg10.dtd">
<svg version="1.0" xmlns="http://www.w3.org/2000/svg"
 width="1296.000000pt" height="1296.000000pt" viewBox="0 0 1296.000000 1296.000000"
 preserveAspectRatio="xMidYMid meet">
<metadata>
Created by potrace 1.14, written by Peter Selinger 2001-2017
</metadata>
<g transform="translate(0.000000,1296.000000) scale(0.100000,-0.100000)"
fill="#000000" stroke="none">
<path d="M6489 12916 c-2 -2 -65 -6 -139 -9 -74 -3 -146 -8 -160 -11 -14 -2
-43 -7 -65 -10 -22 -3 -58 -8 -80 -11 -50 -8 -238 -51 -285 -65 -19 -6 -42
-13 -50 -15 -8 -2 -28 -9 -45 -15 -16 -6 -37 -13 -45 -15 -60 -14 -344 -146
-427 -198 -24 -15 -45 -27 -47 -27 -9 0 -101 -64 -104 -72 -2 -4 -9 -8 -14 -8
-10 0 -153 -102 -168 -119 -3 -3 -27 -24 -55 -46 -60 -48 -264 -251 -320 -319
-22 -27 -45 -54 -50 -60 -13 -13 -106 -140 -120 -164 -6 -9 -27 -42 -47 -72
-47 -72 -80 -130 -120 -210 -18 -36 -37 -68 -41 -71 -5 -3 -8 -8 -7 -10 2 -5
-14 -45 -39 -99 -25 -55 -93 -239 -95 -260 -1 -9 -5 -20 -8 -25 -3 -6 -9 -26
-14 -45 -11 -50 -11 -50 -14 -52 -2 -3 -6 -18 -14 -56 -3 -13 -7 -31 -10 -40
-3 -9 -7 -34 -10 -54 -3 -21 -10 -57 -15 -80 -6 -23 -8 -45 -5 -48 3 -3 418
-6 922 -6 504 -1 920 -2 924 -3 4 0 7 -169 7 -375 l-1 -373 -939 0 c-517 0
-942 -3 -945 -6 -3 -2 -5 -36 -4 -73 1 -91 1 -88 -2 -172 -2 -39 0 -72 3 -72
3 0 3 -21 -1 -47 -3 -27 -3 -65 1 -85 3 -20 3 -42 -1 -48 -3 -6 -4 -33 0 -60
4 -27 3 -54 0 -60 -4 -6 -4 -31 0 -56 4 -24 3 -47 -2 -50 -15 -9 3 -26 23 -21
11 3 19 1 19 -4 0 -5 11 -4 25 1 15 6 26 6 30 -1 4 -5 11 -7 16 -4 12 8 89 12
89 5 0 -3 16 -5 35 -5 19 0 35 4 35 8 0 5 5 5 11 1 6 -3 39 -6 74 -6 35 0 68
3 74 6 6 4 11 4 11 -1 0 -4 16 -8 35 -8 19 0 35 4 35 8 0 5 5 5 11 1 14 -8
134 -8 148 0 6 4 11 4 11 -1 0 -4 16 -8 35 -8 19 0 35 4 35 8 0 5 5 5 11 1 14
-8 134 -8 148 0 6 4 11 4 11 -1 0 -4 16 -8 35 -8 19 0 35 4 35 8 0 5 5 5 11 1
14 -8 134 -8 148 0 6 4 11 3 11 -3 0 -6 11 -6 30 -1 17 5 30 5 30 0 0 -4 15
-5 33 0 18 4 43 3 55 -1 12 -5 24 -4 27 2 4 5 11 7 16 4 13 -8 107 -10 115 -3
3 4 17 3 30 -2 15 -6 24 -6 24 0 0 6 9 6 24 0 13 -5 27 -6 30 -3 9 9 66 9 66
1 0 -4 11 -3 25 2 15 6 26 6 30 -1 4 -6 13 -6 23 0 10 6 23 6 34 0 10 -6 19
-5 23 1 3 6 15 6 29 0 15 -5 27 -5 34 2 6 6 12 6 16 -1 4 -5 13 -8 20 -5 12 5
14 -54 15 -365 0 -225 -4 -373 -10 -376 -5 -4 -430 -6 -945 -7 l-936 0 5 -24
c2 -13 1 -24 -2 -24 -5 0 -5 -195 0 -210 1 -3 1 -8 1 -11 -1 -8 -2 -90 -2
-111 1 -10 1 -38 1 -63 0 -25 0 -51 0 -57 0 -7 0 -33 0 -58 0 -25 -1 -54 -1
-65 1 -11 0 -37 0 -58 -1 -20 1 -45 4 -55 5 -16 149 -17 2641 -17 l2635 0 1
50 c1 28 0 55 -1 60 -1 6 -1 53 0 105 1 52 1 101 1 108 -2 24 -2 37 -2 87 1
28 1 85 0 128 -1 43 0 80 2 82 2 2 2 32 -1 67 l-5 63 -920 2 c-506 1 -930 2
-942 3 l-22 0 0 380 c0 281 3 379 12 373 12 -7 106 -7 114 1 3 2 16 1 29 -4
14 -6 26 -6 29 0 3 6 15 6 30 0 15 -6 25 -6 25 0 0 5 12 5 28 1 15 -5 37 -5
49 0 13 5 25 4 28 -1 4 -7 13 -7 24 0 10 5 21 7 24 4 8 -9 97 -10 97 -2 0 4
14 3 30 -2 18 -5 30 -5 30 0 0 6 10 6 25 0 14 -5 25 -6 25 -2 0 4 14 7 30 7
17 0 30 -3 30 -7 0 -4 14 -3 30 2 18 5 30 5 30 0 0 -6 9 -6 23 -1 12 5 32 5
45 0 12 -5 22 -5 22 1 0 5 13 5 30 0 18 -5 30 -5 30 0 0 6 10 6 25 0 14 -5 25
-6 25 -2 0 4 14 7 30 7 17 0 30 -3 30 -7 0 -4 14 -3 30 2 18 5 30 5 30 0 0 -6
9 -6 23 -1 12 5 32 5 45 0 12 -5 22 -5 22 1 0 5 13 5 30 0 18 -5 30 -5 30 0 0
6 10 6 25 0 14 -5 25 -6 25 -2 0 4 14 7 30 7 17 0 30 -3 30 -7 0 -4 14 -3 30
2 18 5 30 5 30 0 0 -6 9 -6 23 -1 12 5 32 5 45 0 12 -5 22 -5 22 1 0 5 13 5
30 0 18 -5 30 -5 30 0 0 6 10 6 25 0 14 -5 25 -6 25 -2 0 4 14 7 30 7 17 0 30
-3 30 -7 0 -4 14 -3 30 2 18 5 30 5 30 0 0 -5 10 -6 23 -2 25 9 74 8 83 -1 3
-3 17 -2 30 3 13 5 26 5 29 1 3 -5 14 -7 24 -4 15 4 20 16 23 54 1 27 -1 49
-5 49 -5 0 -6 4 -2 9 3 6 5 36 5 68 0 157 0 216 2 311 2 56 -1 102 -5 102 -5
0 -6 4 -3 8 4 7 7 81 5 135 0 9 -8 17 -17 18 -9 0 -434 1 -944 1 l-927 1 1
373 c0 206 3 375 7 375 3 1 420 2 926 3 912 1 920 1 918 21 -13 146 -96 437
-183 641 -40 92 -129 275 -140 284 -3 3 -25 39 -49 80 -25 41 -47 77 -51 80
-3 3 -16 22 -29 43 -13 20 -31 47 -41 60 -11 12 -54 65 -96 117 -87 107 -283
305 -362 365 -28 21 -52 43 -52 47 0 4 -4 8 -10 8 -5 0 -45 27 -89 60 -44 33
-82 60 -85 60 -3 0 -22 12 -43 26 -21 14 -47 30 -58 35 -11 5 -33 18 -50 28
-58 38 -271 139 -340 162 -22 7 -44 17 -50 21 -5 4 -19 8 -30 8 -12 0 -25 3
-29 8 -4 4 -12 8 -17 8 -5 1 -10 2 -11 4 -4 2 -1 1 -166 44 -118 31 -163 40
-262 51 -14 2 -38 6 -55 9 -16 3 -86 9 -155 12 -68 3 -127 7 -131 10 -3 2 -8
2 -10 0z"/>
<path d="M3843 6856 c-7 -11 -7 -105 -1 -112 3 -2 2 -21 -1 -42 -3 -20 -4 -57
-1 -82 3 -25 2 -69 -1 -98 -3 -29 -3 -54 -1 -56 2 -2 5 -53 8 -113 2 -59 6
-124 8 -143 7 -65 18 -155 22 -172 2 -10 6 -28 9 -40 3 -13 7 -36 9 -53 5 -41
54 -225 66 -250 6 -11 11 -29 13 -40 1 -11 6 -26 10 -32 5 -7 10 -21 12 -30 5
-24 71 -186 92 -226 9 -17 18 -36 19 -42 1 -5 22 -46 47 -90 24 -44 53 -95 63
-114 11 -19 27 -44 37 -55 9 -11 17 -25 17 -32 0 -7 4 -14 8 -16 5 -1 27 -31
50 -64 63 -94 195 -249 299 -351 51 -50 93 -90 93 -88 0 2 13 -9 28 -23 51
-49 92 -82 102 -82 5 0 10 -4 10 -8 0 -10 126 -102 139 -102 5 0 11 -3 13 -7
7 -18 181 -122 288 -174 100 -48 152 -71 230 -101 36 -14 74 -29 85 -33 11 -5
31 -10 45 -12 13 -2 29 -8 35 -12 9 -7 149 -45 206 -56 11 -2 28 -6 37 -9 9
-3 37 -8 62 -11 24 -4 47 -8 50 -10 3 -1 30 -6 60 -9 30 -4 67 -9 82 -11 26
-5 213 -16 288 -17 50 0 250 12 285 18 16 3 52 7 79 9 27 3 57 7 65 10 9 2 31
7 49 10 110 18 292 65 362 92 8 3 20 7 25 8 55 14 356 146 375 165 3 3 19 12
35 20 46 23 243 146 255 159 3 3 23 19 46 34 22 15 49 35 60 45 11 9 46 40 79
67 81 68 218 205 290 290 32 39 62 72 67 73 4 2 8 8 8 14 0 5 7 16 15 25 9 8
34 43 57 77 23 33 44 63 48 66 3 3 19 28 35 55 17 28 34 58 40 67 49 81 151
286 161 323 1 6 13 35 27 65 13 30 25 57 25 60 1 6 11 37 23 70 5 14 11 34 14
45 2 11 11 45 20 75 9 30 18 66 21 80 3 14 9 41 14 60 5 19 12 53 15 75 3 22
10 65 15 95 13 74 21 149 26 245 4 79 5 93 3 118 -1 11 0 173 0 222 2 76 0
129 -5 136 -3 5 -1 9 4 9 17 0 1 40 -17 41 -84 7 -5254 2 -5258 -5z"/>
<path d="M3130 5436 c-58 -19 -159 -50 -225 -70 -66 -21 -138 -43 -160 -51
-22 -8 -79 -26 -127 -40 -81 -24 -101 -39 -81 -59 4 -3 8 -12 9 -19 8 -49 163
-437 186 -464 6 -7 8 -13 4 -13 -3 0 3 -15 13 -32 11 -18 38 -69 60 -113 22
-44 58 -111 81 -150 22 -38 46 -80 52 -92 6 -13 15 -23 20 -23 4 0 8 -5 8 -11
0 -6 23 -44 50 -85 28 -41 50 -77 50 -79 0 -3 7 -13 16 -22 13 -15 94 -123
152 -201 9 -13 26 -34 37 -46 11 -13 45 -52 75 -87 56 -67 329 -342 390 -394
19 -16 60 -50 90 -75 30 -25 57 -47 60 -50 17 -18 172 -130 179 -130 5 0 11
-4 13 -9 4 -10 157 -113 241 -162 33 -19 75 -44 95 -57 44 -27 417 -213 434
-216 7 -2 24 -8 38 -13 131 -56 366 -138 450 -158 3 -1 25 -7 50 -14 25 -7 52
-15 60 -17 8 -2 42 -10 76 -18 67 -17 108 -26 139 -31 11 -2 32 -6 48 -9 43
-9 69 -14 117 -21 25 -4 54 -8 65 -10 22 -4 71 -10 158 -20 49 -6 57 -10 57
-29 1 -29 1 -1418 0 -1490 l0 -58 -35 4 c-19 2 -35 1 -35 -3 0 -4 -13 -4 -30
1 -17 5 -30 5 -30 0 0 -5 -10 -6 -22 -1 -13 4 -35 5 -50 0 -15 -4 -30 -4 -33
1 -3 5 -16 5 -30 0 -15 -6 -27 -6 -30 1 -4 5 -11 7 -16 3 -13 -7 -99 -11 -99
-4 0 3 -15 4 -32 3 -38 -2 -85 -3 -110 -3 -10 0 -25 0 -33 0 -8 0 -22 0 -30 0
-8 0 -22 0 -30 0 -8 0 -22 0 -30 0 -8 0 -22 0 -30 0 -8 0 -22 0 -30 0 -8 0
-22 0 -30 0 -8 0 -22 0 -30 0 -8 0 -22 0 -30 0 -8 0 -22 0 -30 0 -8 0 -22 0
-30 0 -8 0 -22 0 -30 0 -8 0 -22 0 -30 0 -8 0 -22 0 -30 0 -8 0 -22 0 -30 0
-8 0 -22 0 -30 0 -8 0 -22 0 -30 0 -8 0 -22 0 -30 0 -8 0 -22 0 -30 0 -8 0
-22 0 -30 0 -8 0 -22 0 -30 0 -8 0 -22 0 -30 0 -8 0 -22 0 -30 0 -8 0 -22 0
-30 0 -8 0 -22 0 -30 0 -8 0 -22 0 -30 0 -8 0 -22 0 -30 0 -8 0 -22 0 -30 0
-8 0 -23 0 -32 0 -10 0 -41 0 -70 1 -29 0 -57 -2 -63 -6 -5 -3 -10 -3 -10 2 0
4 -22 8 -50 8 -27 0 -50 -3 -50 -7 0 -4 -13 -3 -30 2 -17 5 -30 5 -30 0 0 -5
-10 -6 -22 -1 -13 4 -35 5 -50 0 -15 -4 -30 -4 -33 1 -3 5 -16 5 -30 0 -15 -6
-27 -6 -30 1 -4 5 -13 6 -22 0 -9 -5 -29 -5 -45 -1 -15 5 -28 5 -28 0 0 -5
-13 -5 -30 0 -17 5 -30 5 -30 0 0 -5 -10 -6 -22 -1 -13 4 -35 5 -50 0 -15 -4
-30 -4 -33 1 -3 5 -16 5 -30 0 -15 -6 -27 -6 -30 0 -4 7 -13 7 -24 0 -10 -5
-21 -6 -25 -3 -6 6 -10 -23 -6 -42 1 -5 1 -28 0 -50 -1 -46 -1 -50 0 -90 0
-16 -1 -56 -2 -88 -2 -31 1 -57 5 -57 5 0 6 -4 3 -9 -5 -7 -7 -47 -6 -113 1
-16 1 -45 1 -125 0 -10 0 -45 -1 -78 0 -33 2 -68 3 -79 3 -18 67 -19 2636 -18
1448 0 2635 2 2637 5 5 4 5 61 3 200 0 6 0 82 0 167 0 85 0 164 0 175 0 11 1
57 1 102 1 88 -4 108 -26 99 -8 -3 -14 -1 -14 4 0 5 -13 5 -30 0 -16 -5 -30
-5 -30 -1 0 4 -22 5 -50 1 -27 -3 -55 -3 -62 1 -6 4 -20 3 -29 -2 -11 -6 -20
-5 -24 1 -3 5 -15 6 -28 1 -12 -5 -34 -5 -49 0 -16 4 -28 4 -28 -1 0 -5 -13
-5 -30 0 -17 5 -30 5 -30 0 0 -5 -13 -5 -30 0 -17 5 -30 5 -30 0 0 -5 -13 -5
-30 0 -17 5 -30 5 -30 0 0 -5 -13 -5 -30 0 -17 5 -30 5 -30 0 0 -5 -13 -5 -30
0 -17 5 -30 5 -30 0 0 -5 -12 -5 -27 -1 -16 4 -40 4 -55 0 -16 -4 -28 -3 -28
1 0 5 -14 5 -30 0 -17 -5 -30 -5 -30 0 0 5 -13 5 -30 0 -17 -5 -30 -5 -30 0 0
5 -13 5 -30 0 -17 -5 -30 -5 -30 0 0 5 -13 5 -30 0 -17 -5 -30 -5 -30 0 0 5
-13 5 -30 0 -17 -5 -30 -5 -30 0 0 5 -13 5 -30 0 -17 -5 -30 -5 -30 0 0 5 -13
5 -30 0 -17 -5 -30 -5 -30 0 0 5 -13 5 -30 0 -17 -5 -30 -5 -30 0 0 5 -13 5
-30 0 -17 -5 -30 -5 -30 0 0 5 -13 5 -30 0 -16 -5 -30 -5 -30 -1 0 4 -27 4
-60 1 -33 -3 -60 -3 -60 1 0 4 -13 4 -30 -1 -17 -5 -30 -5 -30 0 0 5 -13 5
-30 0 -17 -5 -30 -5 -30 0 0 5 -13 5 -30 0 -17 -5 -30 -5 -30 0 0 5 -13 5 -30
0 -17 -5 -30 -5 -30 0 0 5 -13 5 -30 0 -17 -5 -30 -5 -30 0 0 5 -13 5 -30 0
-17 -5 -30 -5 -30 0 0 5 -13 5 -30 0 -17 -5 -30 -5 -30 0 0 5 -13 5 -30 0 -17
-5 -30 -5 -30 0 0 5 -13 5 -30 0 -17 -5 -30 -5 -30 0 0 5 -13 5 -30 0 -17 -5
-30 -5 -30 0 0 5 -13 5 -30 0 -17 -5 -32 -5 -35 0 -3 6 -16 5 -29 0 -13 -5
-27 -6 -31 -2 -4 4 -12 7 -18 7 -9 0 -12 191 -12 773 -1 425 2 777 5 782 3 5
28 12 55 14 28 3 73 8 100 12 28 3 64 8 80 10 17 1 30 3 30 4 0 1 11 3 25 5
25 3 85 13 124 21 11 2 35 7 51 10 17 3 48 9 70 15 22 5 49 12 59 14 85 20
199 52 296 83 63 20 117 37 120 37 3 1 19 7 35 14 17 6 50 19 75 28 25 9 51
21 58 26 6 5 12 7 12 4 0 -6 53 17 219 94 57 27 107 49 112 49 5 0 9 5 9 10 0
6 7 10 16 10 8 0 22 7 31 15 8 8 19 13 24 10 5 -4 9 -3 9 2 0 4 10 13 23 19
51 24 142 78 145 85 2 5 9 9 16 9 6 0 21 7 31 15 11 8 74 50 140 94 66 44 130
89 142 100 12 12 25 21 28 21 6 0 139 105 171 135 6 5 38 33 70 60 68 59 267
256 339 336 95 106 150 171 154 183 2 6 10 16 16 21 20 17 135 173 135 184 0
5 4 11 9 13 15 6 211 319 211 338 0 5 4 10 8 12 8 3 182 348 186 371 3 11 9
27 47 117 6 14 10 25 9 25 0 0 6 18 15 39 9 22 18 48 20 58 2 9 10 32 18 50
24 57 35 98 29 102 -7 3 -212 69 -222 71 -27 4 -108 30 -117 38 -7 5 -13 7
-13 3 0 -3 -16 0 -35 8 -19 8 -35 13 -35 11 0 -2 -29 7 -64 20 -35 13 -67 21
-70 17 -3 -3 -6 0 -6 7 0 7 -4 10 -9 7 -4 -3 -32 3 -62 14 -29 11 -61 20 -69
20 -10 0 -24 -25 -40 -72 -14 -40 -25 -75 -25 -78 -1 -3 -6 -15 -13 -26 -6
-12 -8 -24 -5 -28 3 -3 1 -6 -5 -6 -7 0 -12 -6 -12 -14 0 -27 -112 -263 -191
-403 -63 -111 -60 -107 -144 -232 -38 -57 -74 -111 -80 -120 -5 -9 -12 -18
-15 -21 -3 -3 -43 -52 -89 -109 -46 -57 -91 -112 -100 -121 -100 -106 -192
-197 -256 -255 -43 -38 -86 -77 -95 -86 -33 -31 -216 -167 -305 -225 -49 -32
-92 -62 -93 -67 -2 -4 -7 -5 -12 -2 -4 3 -13 -2 -20 -10 -7 -8 -19 -15 -26
-15 -8 0 -14 -4 -14 -8 0 -5 -16 -14 -35 -22 -19 -8 -35 -17 -35 -21 0 -4 -12
-10 -27 -14 -15 -3 -30 -10 -33 -14 -7 -12 -261 -132 -285 -136 -5 0 -32 -11
-60 -24 -27 -12 -57 -24 -65 -26 -8 -2 -55 -18 -105 -35 -49 -17 -97 -32 -105
-34 -8 -2 -35 -10 -60 -17 -25 -7 -54 -14 -64 -16 -11 -2 -45 -10 -75 -18
-136 -34 -375 -69 -556 -81 -63 -4 -377 -4 -430 0 -98 7 -212 19 -230 23 -11
2 -36 6 -55 8 -19 2 -51 7 -70 11 -19 4 -48 8 -63 10 -15 2 -36 8 -46 13 -10
6 -21 8 -23 5 -3 -2 -33 3 -66 11 -34 9 -70 18 -79 20 -27 5 -196 55 -213 62
-8 3 -19 7 -25 8 -19 5 -226 85 -273 106 -170 77 -453 230 -460 250 -2 5 -9 9
-16 9 -6 0 -21 7 -31 15 -11 9 -50 37 -86 63 -291 207 -597 506 -759 742 -13
19 -27 37 -30 40 -14 10 -130 190 -130 200 0 5 -4 10 -10 10 -5 0 -10 4 -10 9
0 5 -17 38 -39 72 -52 87 -198 386 -206 425 -2 6 -10 27 -18 45 -17 40 -42
102 -42 109 -2 19 -38 110 -43 110 -4 -1 -54 -16 -112 -34z"/>
</g>
</svg>
