<?xml version="1.0" encoding="UTF-8"?>
<!DOCTYPE svg PUBLIC "-//W3C//DTD SVG 1.1//EN" "http://www.w3.org/Graphics/SVG/1.1/DTD/svg11.dtd">
<svg xmlns="http://www.w3.org/2000/svg" version="1.1" width="63px" height="26px" style="shape-rendering:geometricPrecision; text-rendering:geometricPrecision; image-rendering:optimizeQuality; fill-rule:evenodd; clip-rule:evenodd" xmlns:xlink="http://www.w3.org/1999/xlink">
<g><path style="opacity:0.474" fill="#f0f1f0" d="M 48.5,-0.5 C 49.5,-0.5 50.5,-0.5 51.5,-0.5C 53.8327,2.0026 55.9993,4.66927 58,7.5C 59.129,9.14117 60.629,10.1412 62.5,10.5C 62.5,11.5 62.5,12.5 62.5,13.5C 58.1667,17.1667 54.1667,21.1667 50.5,25.5C 50.1667,25.5 49.8333,25.5 49.5,25.5C 48.6971,24.5768 48.5304,23.5768 49,22.5C 52.2012,18.9636 55.7012,15.7969 59.5,13C 39.5028,12.5 19.5028,12.3334 -0.5,12.5C -0.5,11.8333 -0.5,11.1667 -0.5,10.5C 18.8362,10.6666 38.1695,10.5 57.5,10C 53.8926,6.90231 50.8926,3.40231 48.5,-0.5 Z"/></g>
</svg>
