<?xml version="1.0" encoding="utf-8"?>
<!-- Generator: Adobe Illustrator 22.0.0, SVG Export Plug-In . SVG Version: 6.00 Build 0)  -->
<svg version="1.1" id="Слой_1" xmlns="http://www.w3.org/2000/svg" xmlns:xlink="http://www.w3.org/1999/xlink" x="0px" y="0px"
	 viewBox="0 0 61 25" style="enable-background:new 0 0 61 25;" xml:space="preserve">
<style type="text/css">
	.st0{fill:#FFFFFF;}
</style>
<path class="st0" d="M61,13c0-0.4,0-0.7,0-1c-20.1,0-40.2,0-60.4,0c0,0,0,0,0,0h1.1c0,0,0,0,0-0.1c3.4-3.7,6.8-7.3,10.2-11
	C11.6,0.6,11.4,0.3,11,0c-0.1,0.2-0.2,0.4-0.4,0.5L0.1,11.9H0V13l0.2,0.3c0.1,0.1,0.3,0.2,0.4,0.4c3.4,3.6,6.7,7.3,10.1,10.9
	c0.1,0.1,0.2,0.3,0.4,0.5c0.4-0.3,0.6-0.6,0.9-0.9c-3.4-3.7-6.8-7.4-10.2-11c0,0,0-0.1,0.1-0.1C21.6,13,41.3,13,61,13z"/>
</svg>
