<?xml version="1.0" encoding="UTF-8"?>
<!DOCTYPE svg PUBLIC "-//W3C//DTD SVG 1.1//EN" "http://www.w3.org/Graphics/SVG/1.1/DTD/svg11.dtd">
<svg xmlns="http://www.w3.org/2000/svg" version="1.1" width="63px" height="26px" style="shape-rendering:geometricPrecision; text-rendering:geometricPrecision; image-rendering:optimizeQuality; fill-rule:evenodd; clip-rule:evenodd" xmlns:xlink="http://www.w3.org/1999/xlink">
<g><path style="opacity:0.472" fill="#f0f1f0" d="M 11.5,-0.5 C 11.8333,-0.5 12.1667,-0.5 12.5,-0.5C 13.3029,0.423175 13.4696,1.42317 13,2.5C 9.79879,6.03641 6.29879,9.20307 2.5,12C 22.4972,12.5 42.4972,12.6666 62.5,12.5C 62.5,13.1667 62.5,13.8333 62.5,14.5C 43.1638,14.3334 23.8305,14.5 4.5,15C 8.10741,18.0977 11.1074,21.5977 13.5,25.5C 12.5,25.5 11.5,25.5 10.5,25.5C 7.09146,21.4247 3.42479,17.7581 -0.5,14.5C -0.5,13.5 -0.5,12.5 -0.5,11.5C 3.83333,7.83333 7.83333,3.83333 11.5,-0.5 Z"/></g>
</svg>
