<?xml version="1.0" encoding="utf-8"?>
<!-- Generator: Adobe Illustrator 22.0.0, SVG Export Plug-In . SVG Version: 6.00 Build 0)  -->
<svg version="1.1" id="Слой_1" xmlns="http://www.w3.org/2000/svg" xmlns:xlink="http://www.w3.org/1999/xlink" x="0px" y="0px"
	 viewBox="0 0 20 20" style="enable-background:new 0 0 20 20;" xml:space="preserve">
<style type="text/css">
	.st0{fill:#FFFFFF;}
</style>
<path class="st0" d="M10,0c5.5,0,10,4.5,10,10c0,5.5-4.5,10-10,10C4.5,20,0,15.5,0,10C0,4.5,4.5,0,10,0z M10,2c-4.4,0-8,3.6-8,8
	c0,4.5,3.6,8,8,8c4.4,0,8-3.6,8-8C18,5.6,14.5,2,10,2z"/>
<path class="st0" d="M11,9.4c1,0,2,0,2.9,0c0.8,0,1.2,0.4,1.2,1c0,0.6-0.4,1-1.2,1c-1.2,0-2.5,0-3.7,0C9.4,11.4,9,11,9,10.2
	c0-1.6,0-3.3,0-4.9c0-0.7,0.4-1.2,1-1.2c0.6,0,1,0.4,1,1.1C11,6.6,11,8,11,9.4z"/>
</svg>
