<?xml version="1.0" encoding="utf-8"?>
<!-- Generator: Adobe Illustrator 22.0.0, SVG Export Plug-In . SVG Version: 6.00 Build 0)  -->
<svg version="1.1" id="Слой_1" xmlns="http://www.w3.org/2000/svg" xmlns:xlink="http://www.w3.org/1999/xlink" x="0px" y="0px"
	 viewBox="0 0 37.5 55.3" style="enable-background:new 0 0 37.5 55.3;" xml:space="preserve">
<style type="text/css">
	.st0{fill:url(#SVGID_1_);}
	.st1{fill:url(#SVGID_2_);}
	.st2{fill:url(#SVGID_3_);}
	.st3{fill:none;}
</style>
<g>
	
		<linearGradient id="SVGID_1_" gradientUnits="userSpaceOnUse" x1="33.3159" y1="3.5173" x2="5.1981" y2="52.2188" gradientTransform="matrix(1 0 0 -1 0 56.95)">
		<stop  offset="3.030300e-02" style="stop-color:#E89827"/>
		<stop  offset="0.3709" style="stop-color:#EE7433"/>
		<stop  offset="1" style="stop-color:#FC294B"/>
	</linearGradient>
	<path class="st0" d="M36.8,21.4c-0.2-0.8-0.6-1.6-0.3-2.5c0.3-1,0.6-2.1,0.9-3.1c0.1-0.4,0.1-0.7-0.2-1c-0.7-0.8-1.5-1.6-2.1-2.4
		c-0.3-0.4-0.5-0.9-0.7-1.5c-0.2-1.1-0.3-2.2-0.5-3.3c0-0.2-0.2-0.4-0.4-0.5c-0.7-0.3-1.3-0.6-2-0.9c-0.8-0.4-1.8-0.6-2.4-1.5
		c-0.5-0.9-1.2-1.7-1.8-2.6c-0.2-0.3-0.5-0.5-0.9-0.4c-1,0.1-2,0.2-3,0.3c-0.6,0.1-1.1,0-1.6-0.3c-0.9-0.6-1.8-1.1-2.7-1.6
		c-0.3-0.1-0.7-0.1-1,0c-0.9,0.5-1.8,1-2.7,1.5C14.9,1.9,14.3,2,13.7,2c-1-0.1-2-0.2-3-0.2c-0.2,0-0.6,0.2-0.7,0.3
		C9.4,2.9,8.9,3.8,8.2,4.6C7.9,5,7.5,5.5,7,5.7C6,6.2,5,6.6,4,7C3.7,7.2,3.6,7.4,3.5,7.8C3.4,8.9,3.2,10,3,11.1
		c-0.1,0.4-0.3,0.8-0.5,1.2C1.8,13.2,1,14,0.3,14.9c-0.2,0.2-0.3,0.6-0.2,0.8c0.2,0.7,0.5,1.4,0.6,2.2c0.2,0.8,0.6,1.5,0.4,2.3
		c-0.3,1.1-0.6,2.1-0.9,3.2c-0.3,0.4-0.3,0.8,0,1.1c0.8,0.8,1.5,1.7,2.2,2.6c0.2,0.3,0.4,0.7,0.5,1.1c0.2,1.2,0.4,2.3,0.6,3.5
		c0,0.2,0.2,0.4,0.4,0.5c0.8,0.4,1.6,0.7,2.4,1c0.5,0.2,0.8,0.5,0.8,1.1c0,6.6,0,13.2,0,19.8c0,0.3,0,0.6,0,1C7.3,55,7.4,55,7.4,55
		c3.3-2.2,6.6-4.5,9.9-6.7c0.4-0.3,0.7-0.3,1.2,0c3.7,2.2,7.3,4.4,11,6.6c0.2,0.1,0.3,0.2,0.6,0.4c0-0.4,0.1-0.7,0.1-1.1
		c0-6.6,0-13.2,0-19.8c0-0.7,0.2-1,0.8-1.2c0.8-0.3,1.6-0.6,2.4-1c0.2-0.1,0.3-0.3,0.4-0.5c0.2-1.1,0.4-2.3,0.6-3.4
		c0.1-0.4,0.3-0.8,0.5-1.2c0.7-0.9,1.5-1.8,2.3-2.7c0.2-0.2,0.3-0.6,0.2-0.9C37.2,22.9,36.9,22.1,36.8,21.4z M24.2,33.9
		c-2.8,1.2-5.7,1.4-8.7,0.7c-5.5-1.3-9.1-4.8-10.9-10c-2.1-6-0.2-12.7,4.7-16.8c3.4-2.9,7.4-4.1,11.9-3.3c5.3,0.9,9,4.1,11.2,8.9
		c0.9,2,1.3,4.1,1.3,7C33.3,26.2,30.4,31.2,24.2,33.9z"/>
	
		<linearGradient id="SVGID_2_" gradientUnits="userSpaceOnUse" x1="25.3115" y1="25.8567" x2="12.0702" y2="48.7912" gradientTransform="matrix(1 0 0 -1 0 56.95)">
		<stop  offset="0" style="stop-color:#EC832E"/>
		<stop  offset="0.8116" style="stop-color:#F93B45"/>
		<stop  offset="1" style="stop-color:#FC294B"/>
	</linearGradient>
	<path class="st1" d="M14.6,7c-5,1.8-7.8,5.4-8.7,10.5c-0.5,2.6-0.1,5.1,1,7.6c2,4.7,6.7,7.9,11.8,8.1c1.3-0.2,2.6-0.3,3.8-0.8
		c5.1-1.8,8.1-5.4,8.9-10.6c0.7-3.8-0.3-7.4-2.7-10.5C25.4,6.9,19.7,5.1,14.6,7z M17.4,19.6c-1.1,0-1.1,0-1.2,1.2c0.3,0,0.7,0,1,0
		c0.4,0,0.5,0.2,0.5,0.6c0,0.3,0,0.7-0.5,0.7c0,0,0,0-0.1,0c-1.3,0.1-1.3,0.1-1.5,1.4c-0.1,0.9-0.2,0.9-1,0.9
		c-0.4,0-0.5-0.2-0.4-0.6c0.1-0.3,0.1-0.6,0.1-0.9c0.1-0.3,0.1-0.5,0.2-0.8c-0.8-0.2-0.9-0.2-1.1,0.5c-0.1,0.4-0.1,0.8-0.2,1.2
		c-0.1,0.5-0.5,0.6-1.1,0.5c-0.5-0.1-0.2-0.5-0.2-0.7c0-0.3,0.1-0.5,0.1-0.8c0-0.2,0.1-0.4,0.2-0.8c-0.3,0-0.5-0.1-0.7,0
		c-0.5,0.1-0.6-0.2-0.7-0.7c0-0.5,0.2-0.7,0.6-0.6c0.1,0,0.2,0,0.3,0c0.5,0.1,0.9-0.1,0.8-0.7c0-0.1,0.1-0.3,0.1-0.5
		c-0.3,0-0.5-0.1-0.7,0c-0.5,0.1-0.7-0.1-0.7-0.7c0-0.5,0.2-0.7,0.7-0.6c0.2,0,0.4,0.1,0.6,0c0.2-0.1,0.4-0.3,0.5-0.4
		c0.1-0.5,0.2-1,0.3-1.5c0.1-0.6,0.6-0.3,1-0.4c0.4,0,0.4,0.2,0.3,0.5c-0.1,0.4-0.2,0.8-0.2,1.2c0,0.2,0.1,0.5,0.3,0.5
		c0.3,0.1,0.6,0.1,0.7-0.4c0-0.3,0.2-0.7,0.2-1c0.1-1,0.3-1.1,1.5-0.8c-0.1,0.5-0.2,1.1-0.3,1.6c-0.1,0.4,0,0.7,0.5,0.6
		c0.6-0.1,0.8,0.2,0.8,0.8C18,19.5,17.8,19.6,17.4,19.6z M24.4,26c-0.5,0-0.9,0-1.4,0c-0.6,0-0.7-0.2-0.7-0.7c0-2.6,0-5.2,0.1-7.9
		c0-0.2,0-0.4,0-0.7c-0.7,0.5-1.2,1-1.7,1.5c-0.3,0.3-0.5,0.2-0.7-0.1c-1.1-1.2-1.1-1.2,0.1-2.2c0.8-0.7,1.6-1.3,2.4-1.9
		c0.8-0.6,1.6-0.2,2.4-0.2c0.1,0,0.2,0.4,0.2,0.6c0,2.8,0,5.7,0,8.5c0,0.8,0,1.7,0,2.5C25,25.8,24.8,26,24.4,26z"/>
	
		<linearGradient id="SVGID_3_" gradientUnits="userSpaceOnUse" x1="14.8248" y1="36.2818" x2="14.2227" y2="37.3247" gradientTransform="matrix(1 0 0 -1 0 56.95)">
		<stop  offset="0.5337" style="stop-color:#F26139"/>
		<stop  offset="0.6012" style="stop-color:#F3593C"/>
	</linearGradient>
	<path class="st2" d="M13.9,20.2c0,0.2,0.1,0.5,0.2,0.6c0.5,0.2,0.7,0,0.9-1.1C14.3,19.5,14.1,19.6,13.9,20.2z"/>
</g>
<rect x="-366.1" y="412.6" class="st3" width="31.6" height="51.4"/>
</svg>
