<?xml version="1.0" encoding="utf-8"?>
<!-- Generator: Adobe Illustrator 22.0.0, SVG Export Plug-In . SVG Version: 6.00 Build 0)  -->
<svg version="1.1" id="Слой_1" xmlns="http://www.w3.org/2000/svg" xmlns:xlink="http://www.w3.org/1999/xlink" x="0px" y="0px"
	 viewBox="0 0 42 56" style="enable-background:new 0 0 42 56;" xml:space="preserve">
<style type="text/css">
	.st0{fill:none;}
	.st1{fill:url(#SVGID_1_);}
	.st2{fill:url(#SVGID_2_);}
</style>
<rect x="-363.3" y="413.1" class="st0" width="31.6" height="51.4"/>
<g>
	<linearGradient id="SVGID_1_" gradientUnits="userSpaceOnUse" x1="28.6053" y1="61.8071" x2="12.3855" y2="33.7135">
		<stop  offset="3.030300e-02" style="stop-color:#E89827"/>
		<stop  offset="0.4967" style="stop-color:#EE7433"/>
		<stop  offset="1" style="stop-color:#F64941"/>
	</linearGradient>
	<path class="st1" d="M18.3,47.9c0.1-0.4,0.2-0.9,0.3-1.3c0.4-1.6,0.7-3.3,1.1-4.9c0.1-0.6,0.3-1.1,0.3-1.7c0-0.3-0.1-0.6-0.2-0.9
		c0-0.2-0.1-0.4-0.1-0.5c0-0.2,0.1-0.3,0.2-0.5c0,0,0.1,0,0.1-0.1c1.3-0.7,1.3-0.7,2.6,0c0.2,0.1,0.3,0.3,0.2,0.5
		c-0.4,0.8-0.3,1.7-0.1,2.5c0.5,2.1,0.9,4.3,1.4,6.4c0,0.1,0.1,0.2,0.2,0.5c0.1-0.2,0.2-0.4,0.3-0.5c1.2-2.4,2.2-4.8,3.1-7.3
		c0.5-1.5,1-3.1,1.5-4.6c0-0.1,0.2-0.2,0.3-0.2c2,0.5,3.9,1,5.9,1.6c2.1,0.6,3.4,2,4.1,4.1c0.8,2.3,1.2,4.7,1.5,7.2
		c0.2,1.5,0.3,3,0.4,4.5c0,0.2,0,0.3,0.1,0.5c0.3,0.5,0,0.9-0.3,1.2C40.9,54.8,40.5,55,40,55c-12.5,0-25,0-37.4,0
		c-0.7,0-1.5-0.6-1.6-1.3c0-0.1,0-0.1,0-0.2c0.1-1.1,0.3-2.2,0.4-3.4c0.2-2.5,0.5-4.9,1.2-7.3c0.3-1.1,0.7-2.1,1.1-3.1
		c0.6-1.3,1.7-2,3-2.5c1.5-0.5,3-0.9,4.5-1.3c0.6-0.2,1.2-0.3,1.8-0.5c0.3-0.1,0.4,0,0.5,0.2c1,3.4,2.1,6.7,3.6,9.9
		c0.4,0.8,0.8,1.6,1.2,2.4C18.2,47.9,18.2,47.9,18.3,47.9z"/>
	<linearGradient id="SVGID_2_" gradientUnits="userSpaceOnUse" x1="27.6842" y1="30.4226" x2="15.6444" y2="9.569">
		<stop  offset="0" style="stop-color:#F26139"/>
		<stop  offset="1" style="stop-color:#FC294B"/>
	</linearGradient>
	<path class="st2" d="M30.2,16.2c0,0.9,0,1.9,0,2.8c0,0.2,0.1,0.4,0.2,0.6c0.6,1,0.9,2.1,0.8,3.3c-0.1,1.2-0.6,2.2-1.4,3
		c-0.5,0.5-0.8,1-1,1.6c-0.8,1.8-1.9,3.4-3.6,4.4c-3,1.9-6.9,1.3-9.3-1.3c-1-1.1-1.8-2.3-2.3-3.7c-0.1-0.3-0.4-0.6-0.6-0.8
		c-1.2-1.2-1.8-2.6-1.6-4.3c0.1-0.7,0.5-1.4,0.7-2.1c0.1-0.2,0.2-0.5,0.2-0.8c0-1.8,0-3.7,0-5.5c0-0.3,0.1-0.6,0.2-0.8
		c1.6-2.3,3.6-3.8,6.3-4.4c4.4-1,8.6,0.6,11.2,4.5c0.1,0.2,0.2,0.4,0.2,0.6C30.3,14.3,30.2,15.2,30.2,16.2z"/>
</g>
</svg>
