<?xml version="1.0" encoding="utf-8"?>
<!-- Generator: Adobe Illustrator 22.0.0, SVG Export Plug-In . SVG Version: 6.00 Build 0)  -->
<svg version="1.1" id="Слой_1" xmlns="http://www.w3.org/2000/svg" xmlns:xlink="http://www.w3.org/1999/xlink" x="0px" y="0px"
	 viewBox="0 0 42 56" style="enable-background:new 0 0 42 56;" xml:space="preserve">
<style type="text/css">
	.st0{fill:url(#SVGID_1_);}
	.st1{fill:url(#SVGID_2_);}
	.st2{fill:url(#SVGID_3_);}
	.st3{fill:none;}
</style>
<g>
	<linearGradient id="SVGID_1_" gradientUnits="userSpaceOnUse" x1="31.0647" y1="56.0518" x2="15.5128" y2="29.1151">
		<stop  offset="3.030300e-02" style="stop-color:#E89827"/>
		<stop  offset="0.6115" style="stop-color:#EE7433"/>
		<stop  offset="1" style="stop-color:#F35A3B"/>
	</linearGradient>
	<path class="st0" d="M37.8,34.5l-2.9-0.9c-1.8,5.7-7,9.5-12.9,9.5c-5.9,0-11.1-3.8-12.9-9.5l-2.9,0.9c2,6.4,7.7,10.9,14.3,11.5v6.2
		h-9v3h21.1v-3h-9V46C30.1,45.4,35.7,40.9,37.8,34.5z"/>
	<linearGradient id="SVGID_2_" gradientUnits="userSpaceOnUse" x1="27.4866" y1="27.9199" x2="15" y2="6.2924">
		<stop  offset="0" style="stop-color:#F54F3F"/>
		<stop  offset="1" style="stop-color:#FC294B"/>
	</linearGradient>
	<path class="st1" d="M32.5,22H25v-3h7.5v-3H25v-3h7.4C31.6,7.9,27.3,3.9,22,3.9c-5.3,0-9.6,4-10.4,9.1H19v3h-7.5v3H19v3h-7.5v3
		h21.1V22z"/>
	<linearGradient id="SVGID_3_" gradientUnits="userSpaceOnUse" x1="26.9558" y1="38.8204" x2="18.4046" y2="24.0093">
		<stop  offset="0" style="stop-color:#ED7C30"/>
		<stop  offset="1" style="stop-color:#F84143"/>
	</linearGradient>
	<path class="st2" d="M22,40.1c5.8,0,10.5-4.7,10.5-10.5V28H11.4v1.5C11.4,35.3,16.2,40.1,22,40.1z"/>
</g>
<rect x="-363.3" y="413.1" class="st3" width="31.6" height="51.4"/>
</svg>
