<?xml version="1.0" encoding="utf-8"?>
<!-- Generator: Adobe Illustrator 22.0.0, SVG Export Plug-In . SVG Version: 6.00 Build 0)  -->
<svg version="1.1" id="Слой_1" xmlns="http://www.w3.org/2000/svg" xmlns:xlink="http://www.w3.org/1999/xlink" x="0px" y="0px"
	 viewBox="0 0 56 56" style="enable-background:new 0 0 56 56;" xml:space="preserve">
<style type="text/css">
	.st0{fill:#FFFFFF;}
	.st1{fill:#FC284B;}
</style>
<g>
	<path class="st0" d="M34.9,10c-0.3,0.9-0.5,1.7-0.8,2.4c6.8-1.2,13.5-2.5,20.3-3.7c0,1.5,0,2.9,0,4.3c-2.5,0.3-5,0.7-7.4,1
		c-2.8,0.4-5.7,0.9-8.5,1.5c-1.8,0.3-3.6,0.7-5.4,1.1c-0.4,0.1-0.5,0.3-0.7,0.6c-1.9,4.5-4,8.8-6.4,13.1c-1.9,3.3-3.9,6.4-6.3,9.3
		c-1.4,1.6-2.9,3.1-4.9,4c-0.5,0.2-1.1,0.4-1.6,0.4c-1.1,0.1-1.9-0.8-1.9-1.9c-0.1-2.5,0.7-4.6,1.9-6.8c1-1.9,2.3-3.6,3.7-5.2
		c0.8-0.9,2.7-1.2,3.8-0.5c0.3,0.2,0.6,0.4,0.9,0.6c-2.7,3.2-5.4,6.4-6.9,10.4c0,0,0.1,0.1,0.1,0.1c0.5-0.6,1.1-1.3,1.6-1.9
		c2.9-3.9,5.3-8.2,7.4-12.6c1.3-2.6,2.3-5.3,3.5-8c0-0.1,0-0.1,0.1-0.3c-3.7,0.9-7.2,2-10.7,3.3c0,0.1,0,0.1,0,0.2
		c2.1,0.5,4.2,0.9,6.3,1.4c-0.6,1.4-1.5,2.6-2.9,3.3c-0.2,0.1-0.6,0.1-0.7,0c-2.1-1.2-4.3-2.4-6.4-3.5c-0.8-0.5-1.1-1.2-1.1-2
		c0.1-0.8,0.6-1.3,1.3-1.6c4.8-2,9.8-3.7,14.9-4.8c0.5-0.1,0.8-0.3,0.8-0.8c0.2-1.2,1-1.8,2.2-2.1C32.5,10.8,33.6,10.4,34.9,10z"/>
	<path class="st0" d="M40.5,21.6c-0.4,0.8-0.7,1.5-1,2.3c-1.4,3-2.7,6-4.1,9c-0.3,0.6-0.3,0.7,0.5,0.7c1.6,0,3.2,0,4.8,0
		c-0.1,0.2-0.1,0.3-0.2,0.5c-0.8,1.9-1.7,3.7-2.5,5.6C38,39.8,37.7,40,37.6,40c-4,0-8,0-12,0c-0.1,0-0.1,0-0.2,0
		c0.4-0.8,0.7-1.6,1.1-2.4c2.3-5.2,4.7-10.4,7.1-15.6c0.1-0.2,0.3-0.4,0.5-0.4c2.1,0,4.2,0,6.3,0C40.3,21.6,40.4,21.6,40.5,21.6z
		 M38.5,22.9c-1.2,0-2.3,0-3.4,0c-0.5,0-0.8,0.2-1,0.6c-1.8,4.1-3.7,8.2-5.5,12.3c-0.4,0.9-0.8,1.7-1.1,2.6c0.1,0,0.2,0.1,0.2,0.1
		c3.1,0,6.1,0,9.2,0c0.2,0,0.4-0.2,0.5-0.3c0.4-0.9,0.8-1.9,1.2-2.8c0.1-0.1,0.1-0.3,0.1-0.5c-1.8,0-3.6,0-5.4,0
		C35,30.9,36.7,27,38.5,22.9z"/>
	<path class="st1" d="M38.5,22.9c-1.8,4.1-3.6,8-5.3,12c1.8,0,3.6,0,5.4,0c0,0.2-0.1,0.4-0.1,0.5c-0.4,0.9-0.8,1.9-1.2,2.8
		c-0.1,0.2-0.3,0.3-0.5,0.3c-3.1,0-6.1,0-9.2,0c-0.1,0-0.1,0-0.2-0.1c0.4-0.9,0.8-1.7,1.1-2.6c1.9-4.1,3.7-8.2,5.5-12.3
		c0.2-0.5,0.5-0.6,1-0.6C36.2,22.9,37.3,22.9,38.5,22.9z"/>
	<path class="st1" d="M56,0C37.3,0,18.7,0,0,0c0,18.7,0,37.3,0,56c18.7,0,37.3,0,56,0V0z M40.6,34c-0.8,1.9-1.7,3.7-2.5,5.6
		C38,39.8,37.7,40,37.6,40c-4,0-8,0-12,0c-0.1,0-0.1,0-0.2,0c0.4-0.8,0.7-1.6,1.1-2.4c2.3-5.2,4.7-10.4,7.1-15.6
		c0.1-0.2,0.3-0.4,0.5-0.4c2.1,0,4.2,0,6.3,0c0.1,0,0.1,0,0.3,0c-0.4,0.8-0.7,1.5-1,2.3c-1.4,3-2.7,6-4.1,9
		c-0.3,0.6-0.3,0.7,0.5,0.7c1.6,0,3.2,0,4.8,0C40.7,33.7,40.7,33.9,40.6,34z M47,14c-2.8,0.4-5.7,0.9-8.5,1.5
		c-1.8,0.3-3.6,0.7-5.4,1.1c-0.4,0.1-0.5,0.3-0.7,0.6c-1.9,4.5-4,8.8-6.4,13.1c-1.9,3.3-3.9,6.4-6.3,9.3c-1.4,1.6-2.9,3.1-4.9,4
		c-0.5,0.2-1.1,0.4-1.6,0.4c-1.1,0.1-1.9-0.8-1.9-1.9c-0.1-2.5,0.7-4.6,1.9-6.8c1-1.9,2.3-3.6,3.7-5.2c0.8-0.9,2.7-1.2,3.8-0.5
		c0.3,0.2,0.6,0.4,0.9,0.6c-2.7,3.2-5.4,6.4-6.9,10.4c0,0,0.1,0.1,0.1,0.1c0.5-0.6,1.1-1.3,1.6-1.9c2.9-3.9,5.3-8.2,7.4-12.6
		c1.3-2.6,2.3-5.3,3.5-8c0-0.1,0-0.1,0.1-0.3c-3.7,0.9-7.2,2-10.7,3.3c0,0.1,0,0.1,0,0.2c2.1,0.5,4.2,0.9,6.3,1.4
		c-0.6,1.4-1.5,2.6-2.9,3.3c-0.2,0.1-0.6,0.1-0.7,0c-2.1-1.2-4.3-2.4-6.4-3.5c-0.8-0.5-1.1-1.2-1.1-2c0.1-0.8,0.6-1.3,1.3-1.6
		c4.8-2,9.8-3.7,14.9-4.8c0.5-0.1,0.8-0.3,0.8-0.8c0.2-1.2,1-1.8,2.2-2.1c1.2-0.2,2.3-0.6,3.6-1c-0.3,0.9-0.5,1.7-0.8,2.4
		c6.8-1.2,13.5-2.5,20.3-3.7c0,1.5,0,2.9,0,4.3C52,13.3,49.5,13.6,47,14z"/>
</g>
</svg>
