<svg width="15" height="15" fill="none" xmlns="http://www.w3.org/2000/svg"><path d="M12.321 0H2.68A2.682 2.682 0 000 2.679v9.642A2.682 2.682 0 002.679 15h9.642A2.682 2.682 0 0015 12.321V2.68A2.682 2.682 0 0012.321 0zm1.608 12.321c0 .888-.72 1.608-1.608 1.608H2.68c-.888 0-1.608-.72-1.608-1.608V2.68c0-.888.72-1.608 1.608-1.608h9.642c.888 0 1.608.72 1.608 1.608v9.642z" fill="#636363"/><path d="M10.179 6.964H8.036V4.821a.536.536 0 10-1.072 0v2.143H4.821a.536.536 0 100 1.072h2.143v2.143a.536.536 0 101.072 0V8.036h2.143a.536.536 0 100-1.072z" fill="#636363"/></svg>