<svg width="54" height="54" fill="none" xmlns="http://www.w3.org/2000/svg"><path d="M27.189 53.246c13.103 0 23.725-10.622 23.725-23.725 0-13.103-10.622-23.726-23.726-23.726-13.103 0-23.725 10.623-23.725 23.726S14.085 53.246 27.19 53.246z" fill="#EAEBEC"/><path d="M36.105.088h-18.57a2.327 2.327 0 00-2.323 2.323v40.244a2.327 2.327 0 002.323 2.323h18.579a2.327 2.327 0 002.323-2.323V2.41A2.34 2.34 0 0036.105.088zm-12.38 3.095c0-.43.351-.772.772-.772h4.647a.773.773 0 010 1.543h-4.647a.767.767 0 01-.772-.771zm-2.323-.772c.43 0 .771.35.771.772 0 .42-.35.771-.771.771a.778.778 0 01-.772-.771c0-.421.342-.772.772-.772zm5.418 41.015a1.55 1.55 0 01-1.552-1.552 1.55 1.55 0 011.552-1.552c.86 0 1.552.693 1.552 1.552a1.56 1.56 0 01-1.552 1.552zm10.066-13.932v9.285H16.755V6.278h20.122l.008 23.216z" fill="#636363"/><path d="M16.755 29.494h6.19c0-.43.35-.771.771-.771.421 0 .772.35.772.771h1.552c0-.43.35-.771.771-.771.421 0 .772.35.772.771h1.552c0-.43.35-.771.771-.771.421 0 .772.35.772.771h6.19V6.278H16.755v23.216zm13.932-19.341c0-.43.35-.772.771-.772h3.095c.43 0 .772.351.772.772v3.095c0 .43-.35.772-.772.772h-3.095a.773.773 0 01-.771-.772v-3.095zm0 6.19c0-.43.35-.772.771-.772h3.095c.43 0 .772.351.772.772v3.095c0 .43-.35.771-.772.771h-3.095a.773.773 0 01-.771-.771v-3.095zm0 6.19c0-.43.35-.772.771-.772h3.095c.43 0 .772.351.772.772v3.095c0 .43-.35.771-.772.771h-3.095a.773.773 0 01-.771-.771v-3.095zm-6.19-12.38c0-.43.35-.772.771-.772h3.095c.43 0 .772.351.772.772v3.095c0 .43-.35.772-.772.772h-3.095a.773.773 0 01-.771-.772v-3.095zm0 6.19c0-.43.35-.772.771-.772h3.095c.43 0 .772.351.772.772v3.095c0 .43-.35.771-.772.771h-3.095a.773.773 0 01-.771-.771v-3.095zm0 6.19c0-.43.35-.772.771-.772h3.095c.43 0 .772.351.772.772v3.095c0 .43-.35.771-.772.771h-3.095a.773.773 0 01-.771-.771v-3.095zm-6.19-12.38c0-.43.35-.772.771-.772h3.095c.43 0 .772.351.772.772v3.095c0 .43-.35.772-.772.772h-3.095a.773.773 0 01-.771-.772v-3.095zm0 6.19c0-.43.35-.772.771-.772h3.095c.43 0 .772.351.772.772v3.095c0 .43-.35.771-.772.771h-3.095a.773.773 0 01-.771-.771v-3.095zm0 6.19c0-.43.35-.772.771-.772h3.095c.43 0 .772.351.772.772v3.095c0 .43-.35.771-.772.771h-3.095a.773.773 0 01-.771-.771v-3.095z" fill="#fff"/><path d="M29.915 30.275a.773.773 0 01-.771-.772h-1.552c0 .43-.35.772-.772.772a.778.778 0 01-.771-.772h-1.552c0 .43-.35.772-.772.772a.778.778 0 01-.771-.772h-6.19v9.285h20.122v-9.294h-6.2c0 .43-.341.78-.77.78zm-6.961 5.418c0 .43-.351.772-.772.772h-3.095a.773.773 0 01-.771-.772v-3.095c0-.43.35-.771.771-.771h3.095c.43 0 .772.35.772.771v3.095zm6.19 0c0 .43-.351.772-.772.772h-3.095a.773.773 0 01-.771-.772v-3.095c0-.43.35-.771.771-.771h3.095c.43 0 .772.35.772.771v3.095zm2.323-3.875h3.095c.43 0 .772.35.772.771v3.095c0 .43-.351.772-.772.772h-3.095a.773.773 0 01-.771-.772V32.59a.767.767 0 01.771-.771z" fill="#DDD"/><path d="M24.497 3.954h4.647a.773.773 0 000-1.543h-4.647a.773.773 0 000 1.543zm-3.095 0a.772.772 0 100-1.543.772.772 0 000 1.543zm5.418 39.481a1.552 1.552 0 100-3.104 1.552 1.552 0 000 3.104z" fill="#141414"/><path d="M28.363 31.818h-3.095c-.43 0-.771.35-.771.771v3.095c0 .43.35.772.771.772h3.095c.43 0 .772-.35.772-.772V32.59a.767.767 0 00-.772-.771z" fill="#0098FF"/><path d="M30.687 35.693c0 .43.35.772.771.772h3.095c.43 0 .772-.351.772-.772v-3.095c0-.43-.35-.771-.772-.771h-3.095c-.43 0-.771.35-.771.771v3.095z" fill="#7600FF"/><path d="M22.173 31.818h-3.095c-.43 0-.771.35-.771.771v3.095c0 .43.35.772.771.772h3.095c.43 0 .772-.35.772-.772V32.59a.767.767 0 00-.772-.771z" fill="#60606D"/><path d="M25.268 26.4h3.095c.43 0 .772-.351.772-.772v-3.095c0-.43-.35-.772-.772-.772h-3.095a.772.772 0 00-.771.772v3.095c0 .43.35.771.771.771z" fill="#FF6469"/><path d="M31.467 26.4h3.095c.43 0 .772-.351.772-.772v-3.095a.773.773 0 00-.772-.772h-3.095a.772.772 0 00-.771.772v3.095a.762.762 0 00.771.771z" fill="#FF3ED6"/><path d="M19.078 26.4h3.095c.43 0 .772-.351.772-.772v-3.095c0-.43-.35-.772-.772-.772h-3.095a.772.772 0 00-.771.772v3.095c0 .43.342.771.771.771z" fill="#FFA055"/><path d="M25.268 20.21h3.095c.43 0 .772-.351.772-.772v-3.095c0-.43-.35-.772-.772-.772h-3.095a.772.772 0 00-.771.772v3.095c0 .43.35.771.771.771z" fill="#7600FF"/><path d="M31.467 20.21h3.095c.43 0 .772-.351.772-.772v-3.095a.773.773 0 00-.772-.772h-3.095a.772.772 0 00-.771.772v3.095a.762.762 0 00.771.771z" fill="#FFA055"/><path d="M19.078 20.21h3.095c.43 0 .772-.351.772-.772v-3.095c0-.43-.35-.772-.772-.772h-3.095a.772.772 0 00-.771.772v3.095c0 .43.342.771.771.771z" fill="#FF3ED6"/><path d="M25.268 14.02h3.095c.43 0 .772-.351.772-.772v-3.095c0-.43-.35-.772-.772-.772h-3.095a.772.772 0 00-.771.772v3.095c0 .42.35.772.771.772z" fill="#FFD757"/><path d="M31.467 14.02h3.095c.43 0 .772-.351.772-.772v-3.095a.773.773 0 00-.772-.772h-3.095a.772.772 0 00-.771.772v3.095a.767.767 0 00.771.772z" fill="#0098FF"/><path d="M19.078 14.02h3.095c.43 0 .772-.351.772-.772v-3.095c0-.43-.35-.772-.772-.772h-3.095a.772.772 0 00-.771.772v3.095c0 .42.342.772.771.772z" fill="#002BFF"/><path d="M23.725 30.266a.771.771 0 100-1.543.771.771 0 000 1.543z" fill="#464655"/><path d="M26.82 30.266a.771.771 0 100-1.543.771.771 0 000 1.543zm3.095 0a.772.772 0 100-1.543.772.772 0 000 1.543z" fill="#AFAFAF"/></svg>