<?xml version="1.0" encoding="UTF-8"?>
<!DOCTYPE svg PUBLIC "-//W3C//DTD SVG 1.1//EN" "http://www.w3.org/Graphics/SVG/1.1/DTD/svg11.dtd">
<svg xmlns="http://www.w3.org/2000/svg" version="1.1" width="20px" height="20px" style="shape-rendering:geometricPrecision; text-rendering:geometricPrecision; image-rendering:optimizeQuality; fill-rule:evenodd; clip-rule:evenodd" xmlns:xlink="http://www.w3.org/1999/xlink">
<g><path style="opacity:0.643" fill="#fefffe" d="M 4.5,-0.5 C 7.83333,-0.5 11.1667,-0.5 14.5,-0.5C 16.1667,1.16667 17.8333,2.83333 19.5,4.5C 19.5,7.83333 19.5,11.1667 19.5,14.5C 17.8333,16.1667 16.1667,17.8333 14.5,19.5C 11.1667,19.5 7.83333,19.5 4.5,19.5C 2.83333,17.8333 1.16667,16.1667 -0.5,14.5C -0.5,11.1667 -0.5,7.83333 -0.5,4.5C 1.16667,2.83333 2.83333,1.16667 4.5,-0.5 Z M 6.5,2.5 C 12.7667,1.27523 16.4334,3.77523 17.5,10C 14.2708,17.2309 9.43748,18.3975 3,13.5C 1.51801,8.77404 2.68468,5.10738 6.5,2.5 Z"/></g>
<g><path style="opacity:0.71" fill="#fefffe" d="M 8.5,3.5 C 10.256,4.55213 10.9227,6.21879 10.5,8.5C 12.288,8.21478 13.9547,8.54811 15.5,9.5C 15.3333,9.83333 15.1667,10.1667 15,10.5C 12.9592,11.4231 10.7925,11.7564 8.5,11.5C 8.5,8.83333 8.5,6.16667 8.5,3.5 Z"/></g>
</svg>
