<?xml version="1.0" encoding="utf-8"?>
<!-- Generator: Adobe Illustrator 22.0.0, SVG Export Plug-In . SVG Version: 6.00 Build 0)  -->
<svg version="1.1" id="Слой_1" xmlns="http://www.w3.org/2000/svg" xmlns:xlink="http://www.w3.org/1999/xlink" x="0px" y="0px"
	 viewBox="0 0 24 24" style="enable-background:new 0 0 24 24;" xml:space="preserve">
<path d="M23.6,17.3c-0.1-0.1-0.1-0.2-0.2-0.2c-1-1.1-2.1-2.3-3.1-3.4c-0.4-0.5-0.5-0.9-0.1-1.4c0.6-0.8,1.1-1.5,1.6-2.3
	c0.6-0.9,1.1-1.8,1.6-2.8c0.4-0.8,0.1-1.2-0.8-1.3c-0.6,0-1.2,0-1.7,0c-0.9-0.1-1.4,0.3-1.9,1c-1,1.6-2.1,3.1-3.2,4.7
	c-0.2,0.3-0.5,0.4-0.8,0.7c-0.1,0-0.2-0.1-0.2-0.1c0-0.3-0.1-0.6-0.1-0.9c0-1.5,0-3,0-4.5c0-0.6-0.2-0.8-0.8-0.8c-1.4,0-2.8,0-4.2,0
	C9.4,5.9,9,6,8.9,6.2C8.8,6.3,9,6.7,9.2,7c0.2,0.5,0.7,0.9,0.7,1.4c0.1,1.4,0.1,2.9,0,4.3c0,0.6-0.4,0.8-0.8,0.4
	c-0.4-0.4-0.8-0.7-1.1-1.2c-0.9-1.7-1.8-3.4-2.6-5.1C5.1,6.1,4.7,5.8,4.1,5.8c-0.8,0-1.6,0-2.3,0c-1.1,0-1.4,0.4-1,1.4
	C2.2,11,4.1,14.4,7.3,17c1.8,1.5,3.8,2.1,6.2,1.9c1-0.1,1.3-0.3,1.3-1.4c0-0.5-0.1-0.9-0.1-1.4c0-1,0.4-1.3,1.2-0.8
	c0.8,0.5,1.7,1.1,2.2,1.8c1.2,1.6,2.7,2,4.6,1.8c0,0,0.1,0,0.1,0c0.1,0,0.2-0.1,0.3-0.1c0.5-0.2,0.9-0.2,0.8-1
	C23.8,17.6,23.8,17.5,23.6,17.3z"/>
</svg>
