<?xml version="1.0" encoding="utf-8"?>
<!-- Generator: Adobe Illustrator 22.0.0, SVG Export Plug-In . SVG Version: 6.00 Build 0)  -->
<svg version="1.1" id="Слой_1" xmlns="http://www.w3.org/2000/svg" xmlns:xlink="http://www.w3.org/1999/xlink" x="0px" y="0px"
	 viewBox="0 0 50 81" style="enable-background:new 0 0 50 81;" xml:space="preserve">
<style type="text/css">
	.st0{fill:none;}
</style>
<rect x="-468.5" y="425.4" class="st0" width="31.6" height="51.4"/>
<g>
	<g>
		<path d="M49.8,48.3l-4.5-1.4C42.4,55.8,34.3,61.7,25,61.7c-9.3,0-17.4-6-20.2-14.9l-4.5,1.4c3.2,10.1,12,17,22.4,18V76H8.5v4.7h33
			V76H27.4v-9.8C37.7,65.3,46.6,58.4,49.8,48.3z"/>
		<path d="M41.5,28.7H29.7V24h11.8v-4.7H29.7v-4.7h11.6c-1.2-8-8-14.3-16.3-14.3c-8.3,0-15.1,6.3-16.3,14.3h11.6v4.7H8.5V24h11.8
			v4.7H8.5v4.7h33V28.7z"/>
		<path d="M25,57c9.1,0,16.5-7.4,16.5-16.5v-2.4h-33v2.4C8.5,49.6,15.9,57,25,57z"/>
	</g>
</g>
</svg>
